<svg viewBox="0 0 200 200" xmlns="http://www.w3.org/2000/svg">
  <!-- Background circle -->
  <circle cx="100" cy="100" r="90" fill="#2563eb" stroke="#1d4ed8" stroke-width="2"/>
  
  <!-- Document icon -->
  <rect x="60" y="50" width="50" height="65" rx="3" fill="white" opacity="0.9"/>
  <rect x="60" y="50" width="50" height="10" rx="3" fill="#f1f5f9"/>
  
  <!-- Document lines (representing text) -->
  <line x1="68" y1="70" x2="95" y2="70" stroke="#64748b" stroke-width="2" stroke-linecap="round"/>
  <line x1="68" y1="78" x2="102" y2="78" stroke="#64748b" stroke-width="2" stroke-linecap="round"/>
  <line x1="68" y1="86" x2="88" y2="86" stroke="#64748b" stroke-width="2" stroke-linecap="round"/>
  <line x1="68" y1="94" x2="98" y2="94" stroke="#64748b" stroke-width="2" stroke-linecap="round"/>
  <line x1="68" y1="102" x2="85" y2="102" stroke="#64748b" stroke-width="2" stroke-linecap="round"/>
  
  <!-- Extraction arrow -->
  <path d="M120 85 L140 85 L135 80 M140 85 L135 90" stroke="white" stroke-width="3" fill="none" stroke-linecap="round" stroke-linejoin="round"/>
  
  <!-- Extracted text representation -->
  <rect x="125" y="95" width="25" height="3" rx="1.5" fill="#fbbf24"/>
  <rect x="125" y="102" width="30" height="3" rx="1.5" fill="#fbbf24"/>
  <rect x="125" y="109" width="22" height="3" rx="1.5" fill="#fbbf24"/>
  <rect x="125" y="116" width="28" height="3" rx="1.5" fill="#fbbf24"/>
  
  <!-- Decorative elements -->
  <circle cx="45" cy="45" r="3" fill="white" opacity="0.3"/>
  <circle cx="155" cy="155" r="4" fill="white" opacity="0.3"/>
  <circle cx="35" cy="165" r="2" fill="white" opacity="0.4"/>
  
  <!-- Text label -->
  <text x="100" y="145" font-family="Arial, sans-serif" font-size="14" font-weight="bold" fill="white" text-anchor="middle">TEXT</text>
  <text x="100" y="162" font-family="Arial, sans-serif" font-size="12" font-weight="normal" fill="white" text-anchor="middle" opacity="0.9">EXTRACTOR</text>
</svg>